<svg width="483" height="84" viewBox="0 0 483 84" fill="none" xmlns="http://www.w3.org/2000/svg">
<path d="M105.822 63V20.4023H114.494V55.7637H136.057V63H105.822ZM140.51 41.7891C140.51 37.4141 141.164 33.7422 142.473 30.7734C143.449 28.5859 144.777 26.623 146.457 24.8848C148.156 23.1465 150.012 21.8574 152.023 21.0176C154.699 19.8848 157.785 19.3184 161.281 19.3184C167.609 19.3184 172.668 21.2812 176.457 25.207C180.266 29.1328 182.17 34.5918 182.17 41.584C182.17 48.5176 180.285 53.9473 176.516 57.873C172.746 61.7793 167.707 63.7324 161.398 63.7324C155.012 63.7324 149.934 61.7891 146.164 57.9023C142.395 53.9961 140.51 48.625 140.51 41.7891ZM149.445 41.4961C149.445 46.3594 150.568 50.0508 152.814 52.5703C155.061 55.0703 157.912 56.3203 161.369 56.3203C164.826 56.3203 167.658 55.0801 169.865 52.5996C172.092 50.0996 173.205 46.3594 173.205 41.3789C173.205 36.457 172.121 32.7852 169.953 30.3633C167.805 27.9414 164.943 26.7305 161.369 26.7305C157.795 26.7305 154.914 27.9609 152.727 30.4219C150.539 32.8633 149.445 36.5547 149.445 41.4961ZM208.947 47.209V39.9727H227.639V57.082C225.822 58.8398 223.186 60.3926 219.729 61.7402C216.291 63.0684 212.805 63.7324 209.27 63.7324C204.777 63.7324 200.861 62.7949 197.521 60.9199C194.182 59.0254 191.672 56.3301 189.992 52.834C188.312 49.3184 187.473 45.5 187.473 41.3789C187.473 36.9062 188.41 32.9316 190.285 29.4551C192.16 25.9785 194.904 23.3125 198.518 21.457C201.271 20.0312 204.699 19.3184 208.801 19.3184C214.133 19.3184 218.293 20.4414 221.281 22.6875C224.289 24.9141 226.223 28 227.082 31.9453L218.469 33.5566C217.863 31.4473 216.721 29.7871 215.041 28.5762C213.381 27.3457 211.301 26.7305 208.801 26.7305C205.012 26.7305 201.994 27.9316 199.748 30.334C197.521 32.7363 196.408 36.3008 196.408 41.0273C196.408 46.125 197.541 49.9531 199.807 52.5117C202.072 55.0508 205.041 56.3203 208.713 56.3203C210.529 56.3203 212.346 55.9688 214.162 55.2656C215.998 54.543 217.57 53.6738 218.879 52.6582V47.209H208.947ZM235.402 63V20.0508H244.074V63H235.402ZM250.168 49.0254L258.605 48.2051C259.113 51.0371 260.139 53.1172 261.682 54.4453C263.244 55.7734 265.344 56.4375 267.98 56.4375C270.773 56.4375 272.873 55.8516 274.279 54.6797C275.705 53.4883 276.418 52.1016 276.418 50.5195C276.418 49.5039 276.115 48.6445 275.51 47.9414C274.924 47.2188 273.889 46.5938 272.404 46.0664C271.389 45.7148 269.074 45.0898 265.461 44.1914C260.812 43.0391 257.551 41.623 255.676 39.9434C253.039 37.5801 251.721 34.6992 251.721 31.3008C251.721 29.1133 252.336 27.0723 253.566 25.1777C254.816 23.2637 256.604 21.8086 258.928 20.8125C261.271 19.8164 264.094 19.3184 267.395 19.3184C272.785 19.3184 276.838 20.5 279.553 22.8633C282.287 25.2266 283.723 28.3809 283.859 32.3262L275.188 32.707C274.816 30.5 274.016 28.918 272.785 27.9609C271.574 26.9844 269.748 26.4961 267.307 26.4961C264.787 26.4961 262.814 27.0137 261.389 28.0488C260.471 28.7129 260.012 29.6016 260.012 30.7148C260.012 31.7305 260.441 32.5996 261.301 33.3223C262.395 34.2402 265.051 35.1973 269.27 36.1934C273.488 37.1895 276.604 38.2246 278.615 39.2988C280.646 40.3535 282.229 41.8086 283.361 43.6641C284.514 45.5 285.09 47.7754 285.09 50.4902C285.09 52.9512 284.406 55.2559 283.039 57.4043C281.672 59.5527 279.738 61.1543 277.238 62.209C274.738 63.2441 271.623 63.7617 267.893 63.7617C262.463 63.7617 258.293 62.5117 255.383 60.0117C252.473 57.4922 250.734 53.8301 250.168 49.0254ZM302.053 63V27.3164H289.309V20.0508H323.439V27.3164H310.725V63H302.053ZM328.801 63V20.0508H337.473V63H328.801ZM373.244 47.209L381.652 49.875C380.363 54.5625 378.215 58.0488 375.207 60.334C372.219 62.5996 368.42 63.7324 363.811 63.7324C358.107 63.7324 353.42 61.7891 349.748 57.9023C346.076 53.9961 344.24 48.6641 344.24 41.9062C344.24 34.7578 346.086 29.2109 349.777 25.2656C353.469 21.3008 358.322 19.3184 364.338 19.3184C369.592 19.3184 373.859 20.8711 377.141 23.9766C379.094 25.8125 380.559 28.4492 381.535 31.8867L372.951 33.9375C372.443 31.7109 371.379 29.9531 369.758 28.6641C368.156 27.375 366.203 26.7305 363.898 26.7305C360.715 26.7305 358.127 27.873 356.135 30.1582C354.162 32.4434 353.176 36.1445 353.176 41.2617C353.176 46.6914 354.152 50.5586 356.105 52.8633C358.059 55.168 360.598 56.3203 363.723 56.3203C366.027 56.3203 368.01 55.5879 369.67 54.123C371.33 52.6582 372.521 50.3535 373.244 47.209ZM386.926 49.0254L395.363 48.2051C395.871 51.0371 396.896 53.1172 398.439 54.4453C400.002 55.7734 402.102 56.4375 404.738 56.4375C407.531 56.4375 409.631 55.8516 411.037 54.6797C412.463 53.4883 413.176 52.1016 413.176 50.5195C413.176 49.5039 412.873 48.6445 412.268 47.9414C411.682 47.2188 410.646 46.5938 409.162 46.0664C408.146 45.7148 405.832 45.0898 402.219 44.1914C397.57 43.0391 394.309 41.623 392.434 39.9434C389.797 37.5801 388.479 34.6992 388.479 31.3008C388.479 29.1133 389.094 27.0723 390.324 25.1777C391.574 23.2637 393.361 21.8086 395.686 20.8125C398.029 19.8164 400.852 19.3184 404.152 19.3184C409.543 19.3184 413.596 20.5 416.311 22.8633C419.045 25.2266 420.48 28.3809 420.617 32.3262L411.945 32.707C411.574 30.5 410.773 28.918 409.543 27.9609C408.332 26.9844 406.506 26.4961 404.064 26.4961C401.545 26.4961 399.572 27.0137 398.146 28.0488C397.229 28.7129 396.77 29.6016 396.77 30.7148C396.77 31.7305 397.199 32.5996 398.059 33.3223C399.152 34.2402 401.809 35.1973 406.027 36.1934C410.246 37.1895 413.361 38.2246 415.373 39.2988C417.404 40.3535 418.986 41.8086 420.119 43.6641C421.271 45.5 421.848 47.7754 421.848 50.4902C421.848 52.9512 421.164 55.2559 419.797 57.4043C418.43 59.5527 416.496 61.1543 413.996 62.209C411.496 63.2441 408.381 63.7617 404.65 63.7617C399.221 63.7617 395.051 62.5117 392.141 60.0117C389.23 57.4922 387.492 53.8301 386.926 49.0254Z" fill="white"/>
<path d="M33.6533 0.676669C33.0456 1.05 32.3705 1.44667 32.1904 1.51667C32.0104 1.61 31.6053 1.86667 31.2902 2.07667C30.9751 2.31 30.2774 2.73 29.7148 3.05667C29.1522 3.38334 27.6893 4.24667 26.4515 4.99333C25.2137 5.74 22.9856 7.07 21.5002 7.95667C20.0148 8.82 18.642 9.66 18.462 9.77667C18.2819 9.91667 17.9668 10.08 17.7868 10.1733C17.6067 10.2667 16.9316 10.6867 16.2789 11.1067C15.6262 11.5267 15.0411 11.8767 14.9736 11.8767C14.9061 11.8767 14.2759 12.25 13.6007 12.6933C12.9256 13.1367 12.3404 13.51 12.2954 13.51C12.2504 13.51 10.4724 14.56 8.3569 15.8433C6.21886 17.1267 4.41841 18.1767 4.32838 18.1767C4.21586 18.1767 4.03581 18.2933 3.87827 18.4567C3.74324 18.5967 2.8205 19.18 1.87526 19.7167L0.11982 20.6967L0.0523032 24.92C0.00729188 28.3267 0.0523033 29.1667 0.299866 29.2833C0.59244 29.4 2.46041 28.3267 6.01631 26.0633C6.7815 25.5733 7.47918 25.1767 7.52419 25.1767C7.5692 25.1767 8.67198 24.5467 9.95481 23.7533C11.2376 22.96 13.8033 21.42 15.6487 20.3467C17.5167 19.25 19.6548 17.9433 20.4199 17.4533C21.1851 16.94 21.8603 16.5433 21.9278 16.5433C21.9728 16.5433 23.9984 15.33 26.429 13.86C28.8821 12.3667 30.9526 11.2233 31.0876 11.2933C31.2002 11.3867 31.2902 24.78 31.2902 46.41V81.3867L32.0329 81.9467C32.4155 82.25 33.2707 82.81 33.9009 83.16L35.0711 83.8367L36.7141 82.81C37.6368 82.25 38.447 81.69 38.537 81.55C38.627 81.41 38.7171 65.5667 38.7171 46.3633C38.7171 23.59 38.7846 11.3867 38.9421 11.2933C39.0547 11.2233 40.54 11.9933 42.228 13.02C43.9159 14.07 45.3337 14.91 45.3788 14.91C45.4238 14.91 46.0089 15.2833 46.6841 15.7267C47.3593 16.17 47.9894 16.5433 48.0569 16.5433C48.1244 16.5433 48.7096 16.8933 49.3623 17.3133C50.0149 17.7333 51.2527 18.48 52.108 18.97C53.7959 19.95 58.297 22.6333 60.3225 23.8933C60.9977 24.3133 61.9204 24.8733 62.348 25.13C66.9167 27.8367 68.8072 28.98 69.0322 29.19C69.1898 29.33 69.4823 29.3767 69.6624 29.2833C69.955 29.19 70 28.49 70 24.9433C70 20.79 70 20.72 69.5049 20.51C69.2123 20.37 68.7847 20.1367 68.5371 19.9967C67.9069 19.5767 66.4891 18.69 65.6564 18.2C64.6211 17.5933 62.5281 16.3333 62.123 16.0767C61.9429 15.9367 59.8724 14.7 57.5093 13.3233C55.1687 11.9233 52.8056 10.5 52.288 10.1733C51.7479 9.82333 51.2752 9.54333 51.2077 9.54333C51.1402 9.54333 50.5101 9.17 49.8349 8.72667C49.1597 8.28333 48.5746 7.91 48.5296 7.91C48.4845 7.91 47.2917 7.21 45.8964 6.37C44.4785 5.50667 41.9804 4.01333 40.3375 3.03334C38.6946 2.05334 36.8716 0.980002 36.2865 0.630002C35.7013 0.280002 35.1387 1.96137e-06 35.0036 1.96137e-06C34.8911 1.96137e-06 34.2835 0.303335 33.6533 0.676669Z" fill="white"/>
<path d="M26.6766 18.3867C26.5415 18.5033 24.8761 19.5067 22.9631 20.65C21.0501 21.77 18.8446 23.0767 18.0794 23.59C17.3142 24.08 16.6165 24.4767 16.549 24.4767C16.4815 24.4767 15.7838 24.8733 15.0186 25.3633C14.2534 25.8767 12.2954 27.0667 10.6975 28.0233C8.01934 29.6333 7.16412 30.1467 4.73351 31.5467C4.3059 31.78 3.85579 32.0833 3.72075 32.1767C3.60822 32.27 2.88804 32.69 2.14535 33.11C-0.240249 34.4633 0.00731325 32.6667 0.00731325 48.7667V62.93L1.20011 63.56C2.66298 64.3533 4.77852 65.6367 6.03884 66.5233C6.57897 66.8733 7.0966 67.13 7.23164 67.06C7.34417 66.9667 7.43419 64.0033 7.43419 59.8033C7.43419 55.09 7.50171 52.71 7.65925 52.71C7.79428 52.71 8.60449 53.13 9.48221 53.6433C10.3599 54.1567 11.1026 54.5767 11.1476 54.5767C11.1926 54.5767 12.0479 55.09 13.0381 55.7433C14.0284 56.3733 14.9061 56.91 14.9736 56.91C15.0186 56.91 15.6263 57.2833 16.3014 57.7267C16.9766 58.17 17.5843 58.5433 17.6518 58.5433C17.7193 58.5433 18.2819 58.87 18.9121 59.2667L20.0374 59.99V67.41V74.83L21.0051 75.4133C21.5228 75.74 22.3555 76.23 22.8506 76.51C23.3457 76.8133 24.0659 77.2333 24.426 77.4667C24.8086 77.7233 25.2587 77.98 25.4387 78.0733C25.6188 78.1433 26.0464 78.4 26.3615 78.6333C26.6766 78.8667 27.0141 79.0067 27.1042 78.9133C27.3067 78.7033 27.2617 18.1767 27.0591 18.1767C26.9691 18.1767 26.7891 18.27 26.6766 18.3867ZM20.0374 41.16C20.0374 47.74 19.9699 50.6333 19.7898 50.75C19.6548 50.82 19.2497 50.68 18.8896 50.4C18.552 50.1433 18.2144 49.91 18.1469 49.91C18.0344 49.91 11.5302 46.0367 8.62699 44.24L7.43419 43.5167V41.16V38.8267L8.28941 38.3133C8.73952 38.0567 11.4852 36.4 14.3884 34.65C17.2917 32.9233 19.7448 31.5467 19.8348 31.6167C19.9474 31.6867 20.0374 35.98 20.0374 41.16Z" fill="white"/>
<path d="M42.7681 48.4633C42.7681 65.1233 42.8356 78.82 42.9032 78.89C43.0157 79.0067 46.9542 76.7433 49.2498 75.25C49.7674 74.9233 50.24 74.6433 50.285 74.6433C50.375 74.6433 54.7412 72.0533 55.3713 71.61C55.5514 71.47 55.8664 71.3067 56.0465 71.2133C56.2265 71.12 56.9017 70.7 57.5544 70.28C58.207 69.86 58.7697 69.51 58.8147 69.51C58.8597 69.51 59.8049 68.9733 60.9077 68.2967C66.5341 64.9133 69.3248 63.2567 69.6399 63.14C69.955 63 70 61.4367 70 48.79C70 35.56 69.9775 34.5567 69.6174 34.23C69.3924 34.02 66.129 32.0367 62.3481 29.7733C58.5671 27.5333 54.5836 25.13 53.4583 24.4767C52.3555 23.8 50.8702 22.9367 50.195 22.54C49.5198 22.1667 48.8672 21.77 48.7321 21.6533C48.4396 21.4433 42.9482 18.1767 42.8356 18.1767C42.8131 18.1767 42.7681 31.8033 42.7681 48.4633ZM51.5453 32.1767C51.8604 32.4333 52.1755 32.6433 52.288 32.6433C52.3781 32.6433 52.8732 32.9233 53.4133 33.2733C54.3811 33.9267 59.3098 36.8667 61.4028 38.0567L62.5731 38.7567L62.5281 48.58L62.4606 58.4033L61.5604 59.0333C61.0652 59.36 60.1425 59.9433 59.5124 60.3167C57.3968 61.5533 53.7059 63.7233 52.4906 64.47C50.2625 65.8233 50.33 65.7767 50.15 65.4733C50.06 65.31 49.9699 57.6567 49.9699 48.44V31.71H50.4876C50.7576 31.71 51.2303 31.92 51.5453 32.1767Z" fill="white"/>
</svg>
