<svg width="256" height="257" viewBox="0 0 256 257" fill="none" xmlns="http://www.w3.org/2000/svg">
<path d="M123.075 2.36624C120.853 3.50623 118.383 4.71748 117.725 4.93123C117.067 5.21622 115.585 5.99997 114.433 6.64122C113.28 7.35371 110.729 8.63621 108.671 9.6337C106.614 10.6312 101.264 13.2674 96.7369 15.5474C92.21 17.8274 84.0617 21.8886 78.6295 24.5961C73.1972 27.2324 68.1765 29.7974 67.5181 30.1536C66.8596 30.5811 65.7073 31.0798 65.0489 31.3648C64.3904 31.6498 61.9212 32.9323 59.5343 34.2148C57.1475 35.4973 55.0075 36.5661 54.7606 36.5661C54.5136 36.5661 52.2091 37.7061 49.7399 39.0598C47.2707 40.4136 45.1307 41.5535 44.9661 41.5535C44.8015 41.5535 38.2993 44.7598 30.5625 48.6785C22.7433 52.5972 16.1588 55.8035 15.8296 55.8035C15.4181 55.8035 14.7596 56.1597 14.1835 56.6585C13.6896 57.086 10.315 58.8672 6.85817 60.506L0.438266 63.4984L0.191347 76.3946C0.0267337 86.7971 0.191347 89.3621 1.09672 89.7183C2.1667 90.0746 8.99814 86.7971 22.0026 79.8859C24.801 78.3896 27.3525 77.1784 27.5171 77.1784C27.6817 77.1784 31.7147 75.2546 36.4062 72.8321C41.0977 70.4097 50.4806 65.7072 57.2298 62.4297C64.0612 59.081 71.8803 55.091 74.6787 53.5947C77.4772 52.0272 79.9464 50.816 80.1933 50.816C80.3579 50.816 87.7655 47.111 96.6546 42.6223C105.626 38.0623 113.198 34.5711 113.692 34.7848C114.104 35.0698 114.433 75.9671 114.433 142.016V248.819L117.149 250.529C118.548 251.455 121.676 253.165 123.98 254.234L128.26 256.3L134.269 253.165C137.643 251.455 140.606 249.745 140.935 249.318C141.265 248.89 141.594 200.512 141.594 141.873C141.594 72.3334 141.841 35.0698 142.417 34.7848C142.829 34.5711 148.261 36.9223 154.434 40.0573C160.607 43.2635 165.792 45.8285 165.957 45.8285C166.121 45.8285 168.261 46.9685 170.73 48.3223C173.2 49.676 175.504 50.816 175.751 50.816C175.998 50.816 178.138 51.8847 180.525 53.1672C182.912 54.4497 187.439 56.7297 190.566 58.226C196.739 61.2184 213.201 69.4122 220.608 73.2596C223.077 74.5421 226.452 76.2521 228.016 77.0359C244.724 85.3008 251.638 88.7921 252.461 89.4333C253.037 89.8608 254.107 90.0033 254.765 89.7183C255.835 89.4333 256 87.2958 256 76.4659C256 63.7834 256 63.5697 254.189 62.9284C253.119 62.5009 251.555 61.7884 250.65 61.3609C248.345 60.0785 243.16 57.371 240.115 55.8747C236.329 54.0222 228.674 50.1748 227.193 49.391C226.534 48.9635 218.962 45.1873 210.32 40.9835C201.76 36.7086 193.118 32.3623 191.225 31.3648C189.249 30.2961 187.521 29.4411 187.274 29.4411C187.027 29.4411 184.723 28.3011 182.253 26.9474C179.784 25.5936 177.644 24.4536 177.48 24.4536C177.315 24.4536 172.953 22.3161 167.85 19.7512C162.664 17.1149 153.528 12.5549 147.52 9.56245C141.512 6.56997 134.845 3.29248 132.705 2.22374C130.565 1.15499 128.507 0.299999 128.013 0.299999C127.602 0.299999 125.38 1.22624 123.075 2.36624Z" fill="white"/>
<path d="M97.56 56.4447C97.0661 56.801 90.9754 59.8647 83.9794 63.3559C76.9833 66.7759 68.9173 70.7659 66.1189 72.3334C63.3205 73.8296 60.769 75.0409 60.522 75.0409C60.2751 75.0409 57.7236 76.2521 54.9252 77.7484C52.1268 79.3159 44.9661 82.9496 39.1223 85.8708C29.3279 90.787 26.2002 92.3545 17.3111 96.6295C15.7473 97.342 14.1012 98.2683 13.6073 98.5533C13.1958 98.8383 10.562 100.121 7.84586 101.403C-0.878626 105.536 0.0267456 100.05 0.0267456 149.212V192.46L4.38899 194.384C9.73891 196.807 17.4757 200.725 22.0849 203.433C24.0602 204.501 25.9533 205.285 26.4471 205.071C26.8587 204.786 27.1879 195.738 27.1879 182.913C27.1879 168.52 27.4348 161.253 28.011 161.253C28.5048 161.253 31.4678 162.535 34.6778 164.103C37.8877 165.67 40.6039 166.953 40.7685 166.953C40.9331 166.953 44.0607 168.52 47.6822 170.515C51.3037 172.439 54.5137 174.078 54.7606 174.078C54.9252 174.078 57.1475 175.218 59.6167 176.572C62.0859 177.925 64.3081 179.065 64.5551 179.065C64.802 179.065 66.8596 180.063 69.1642 181.274L73.2795 183.483V206.14V228.798L76.8187 230.579C78.7118 231.576 81.7571 233.073 83.5679 233.928C85.3786 234.854 88.0124 236.136 89.3293 236.849C90.7285 237.633 92.3747 238.416 93.0331 238.701C93.6916 238.915 95.2554 239.699 96.4077 240.411C97.56 241.124 98.7946 241.551 99.1238 241.266C99.8645 240.625 99.6999 55.8035 98.9592 55.8035C98.6299 55.8035 97.9715 56.0885 97.56 56.4447ZM73.2795 125.984C73.2795 146.077 73.0326 154.912 72.3742 155.268C71.8803 155.482 70.3988 155.054 69.0819 154.199C67.8473 153.415 66.6127 152.703 66.3658 152.703C65.9543 152.703 42.1677 140.876 31.5501 135.389L27.1879 133.181V125.984V118.859L30.3155 117.292C31.9617 116.508 42.0031 111.449 52.6206 106.106C63.2381 100.833 72.2096 96.6295 72.5388 96.8433C72.9503 97.057 73.2795 110.167 73.2795 125.984Z" fill="white"/>
<path d="M156.409 148.286C156.409 199.158 156.656 240.981 156.903 241.195C157.314 241.551 171.718 234.64 180.113 230.08C182.006 229.083 183.735 228.228 183.899 228.228C184.229 228.228 200.196 220.319 202.501 218.965C203.159 218.538 204.312 218.039 204.97 217.754C205.628 217.469 208.098 216.186 210.484 214.904C212.871 213.621 214.929 212.553 215.094 212.553C215.258 212.553 218.715 210.914 222.748 208.848C243.325 198.517 253.531 193.458 254.683 193.102C255.835 192.674 256 187.9 256 149.283C256 108.884 255.918 105.821 254.601 104.823C253.778 104.182 241.843 98.1258 228.016 91.2146C214.188 84.3746 199.62 77.0359 195.505 75.0409C191.472 72.9747 186.039 70.3384 183.57 69.1272C181.101 67.9872 178.714 66.7759 178.22 66.4197C177.15 65.7784 157.068 55.8035 156.656 55.8035C156.574 55.8035 156.409 97.4133 156.409 148.286ZM188.509 98.5533C189.661 99.337 190.813 99.9783 191.225 99.9783C191.554 99.9783 193.365 100.833 195.34 101.902C198.879 103.897 216.904 112.874 224.559 116.508L228.839 118.646L228.674 148.642L228.427 178.638L225.135 180.562C223.324 181.559 219.95 183.34 217.645 184.48C209.908 188.257 196.41 194.883 191.966 197.163C183.817 201.295 184.064 201.153 183.406 200.227C183.076 199.728 182.747 176.358 182.747 148.214V97.1283H184.64C185.628 97.1283 187.356 97.7695 188.509 98.5533Z" fill="white"/>
</svg>
