<?xml version="1.0" standalone="no"?>
<!DOCTYPE svg PUBLIC "-//W3C//DTD SVG 20010904//EN"
 "http://www.w3.org/TR/2001/REC-SVG-20010904/DTD/svg10.dtd">
<svg version="1.0" xmlns="http://www.w3.org/2000/svg"
 width="640.000000pt" height="758.000000pt" viewBox="0 0 640.000000 758.000000"
 preserveAspectRatio="xMidYMid meet">

<g transform="translate(0.000000,758.000000) scale(0.100000,-0.100000)"
fill="#000000" stroke="none">
<path d="M3145 5350 c-27 -16 -57 -33 -65 -36 -8 -4 -26 -15 -40 -24 -14 -10
-45 -28 -70 -42 -25 -14 -90 -51 -145 -83 -55 -32 -154 -89 -220 -127 -66 -37
-127 -73 -135 -78 -8 -6 -22 -13 -30 -17 -8 -4 -38 -22 -67 -40 -29 -18 -55
-33 -58 -33 -3 0 -31 -16 -61 -35 -30 -19 -56 -35 -58 -35 -2 0 -81 -45 -175
-100 -95 -55 -175 -100 -179 -100 -5 0 -13 -5 -20 -12 -6 -6 -47 -31 -89 -54
l-78 -42 -3 -181 c-2 -146 0 -182 11 -187 13 -5 96 41 254 138 34 21 65 38 67
38 2 0 51 27 108 61 57 34 171 100 253 146 83 47 178 103 212 124 34 22 64 39
67 39 2 0 92 52 200 115 109 64 201 113 207 110 5 -4 9 -578 9 -1505 l0 -1499
33 -24 c17 -13 55 -37 83 -52 l52 -29 73 44 c41 24 77 48 81 54 4 6 8 685 8
1508 0 976 3 1499 10 1503 5 3 71 -30 146 -74 75 -45 138 -81 140 -81 2 0 28
-16 58 -35 30 -19 58 -35 61 -35 3 0 29 -15 58 -33 29 -18 84 -50 122 -71 75
-42 275 -157 365 -211 30 -18 71 -42 90 -53 203 -116 287 -165 297 -174 7 -6
20 -8 28 -4 13 4 15 34 15 186 0 178 0 181 -22 190 -13 6 -32 16 -43 22 -28
18 -91 56 -128 77 -46 26 -139 80 -157 91 -8 6 -100 59 -205 118 -104 60 -209
121 -232 135 -24 15 -45 27 -48 27 -3 0 -31 16 -61 35 -30 19 -56 35 -58 35
-2 0 -55 30 -117 66 -63 37 -174 101 -247 143 -73 42 -154 88 -180 103 -26 15
-51 27 -57 27 -5 0 -32 -13 -60 -29z"/>
<path d="M2835 4591 c-6 -5 -80 -48 -165 -97 -85 -48 -183 -104 -217 -126 -34
-21 -65 -38 -68 -38 -3 0 -34 -17 -68 -38 -34 -22 -121 -73 -192 -114 -119
-69 -157 -91 -265 -151 -19 -10 -39 -23 -45 -27 -5 -4 -37 -22 -70 -40 -106
-58 -95 19 -95 -671 l0 -607 53 -27 c65 -34 159 -89 215 -127 24 -15 47 -26
53 -23 5 4 9 131 9 311 0 202 3 304 10 304 6 0 42 -18 81 -40 39 -22 72 -40
74 -40 2 0 40 -22 84 -50 44 -27 83 -50 86 -50 2 0 29 -16 59 -35 30 -19 57
-35 60 -35 3 0 28 -14 56 -31 l50 -31 0 -318 0 -318 43 -25 c23 -14 60 -35 82
-47 22 -13 54 -31 70 -41 17 -11 37 -22 45 -26 8 -3 27 -14 41 -24 14 -10 29
-16 33 -12 9 9 7 2603 -2 2603 -4 0 -12 -4 -17 -9z m-295 -976 c0 -282 -3
-406 -11 -411 -6 -3 -24 3 -40 15 -15 11 -30 21 -33 21 -5 0 -294 166 -423
243 l-53 31 0 101 0 100 38 22 c20 11 142 82 271 157 129 74 238 133 242 130
5 -3 9 -187 9 -409z"/>
<path d="M3550 3302 c0 -714 3 -1301 6 -1304 5 -5 180 92 282 156 23 14 44 26
46 26 4 0 198 111 226 130 8 6 22 13 30 17 8 4 38 22 67 40 29 18 54 33 56 33
2 0 44 23 93 52 250 145 374 216 388 221 14 6 16 73 16 615 0 567 -1 610 -17
624 -10 9 -155 94 -323 191 -168 96 -345 199 -395 227 -49 29 -115 66 -145 83
-30 16 -59 33 -65 38 -13 9 -257 149 -262 149 -1 0 -3 -584 -3 -1298z m390
698 c14 -11 28 -20 33 -20 4 0 26 -12 50 -27 43 -28 262 -154 355 -205 l52
-30 -2 -421 -3 -421 -40 -27 c-22 -14 -63 -39 -91 -55 -94 -53 -258 -146 -312
-178 -99 -58 -96 -56 -104 -43 -4 7 -8 335 -8 730 l0 717 23 0 c12 0 33 -9 47
-20z"/>
</g>
</svg>
