<svg width="440" height="453" viewBox="0 0 440 453" fill="none" xmlns="http://www.w3.org/2000/svg">
<path d="M214.228 2.90001C211.624 4.50001 208.731 6.20001 207.959 6.50001C207.187 6.90001 205.451 8.00001 204.101 8.90001C202.751 9.90001 199.761 11.7 197.349 13.1C194.938 14.5 188.668 18.2 183.364 21.4C178.059 24.6 168.51 30.3 162.144 34.1C155.778 37.8 149.894 41.4 149.123 41.9C148.351 42.5 147.001 43.2 146.229 43.6C145.458 44 142.564 45.8 139.767 47.6C136.97 49.4 134.462 50.9 134.173 50.9C133.883 50.9 131.183 52.5 128.289 54.4C125.395 56.3 122.888 57.9 122.695 57.9C122.502 57.9 114.882 62.4 105.815 67.9C96.6524 73.4 88.9361 77.9 88.5503 77.9C88.068 77.9 87.2964 78.4 86.6212 79.1C86.0425 79.7 82.088 82.2 78.0369 84.5L70.5136 88.7L70.2242 106.8C70.0313 121.4 70.2242 125 71.2852 125.5C72.5391 126 80.5447 121.4 95.7843 111.7C99.0637 109.6 102.054 107.9 102.247 107.9C102.44 107.9 107.166 105.2 112.664 101.8C118.161 98.4 129.157 91.8 137.066 87.2C145.072 82.5 154.235 76.9 157.514 74.8C160.794 72.6 163.687 70.9 163.977 70.9C164.169 70.9 172.85 65.7 183.267 59.4C193.78 53 202.654 48.1 203.233 48.4C203.715 48.8 204.101 106.2 204.101 198.9V348.8L207.284 351.2C208.924 352.5 212.589 354.9 215.289 356.4L220.305 359.3L227.346 354.9C231.301 352.5 234.773 350.1 235.159 349.5C235.545 348.9 235.93 281 235.93 198.7C235.93 101.1 236.22 48.8 236.895 48.4C237.377 48.1 243.743 51.4 250.977 55.8C258.211 60.3 264.288 63.9 264.48 63.9C264.673 63.9 267.181 65.5 270.075 67.4C272.968 69.3 275.669 70.9 275.958 70.9C276.248 70.9 278.756 72.4 281.553 74.2C284.35 76 289.655 79.2 293.32 81.3C300.554 85.5 319.844 97 328.525 102.4C331.419 104.2 335.373 106.6 337.206 107.7C356.786 119.3 364.888 124.2 365.853 125.1C366.528 125.7 367.782 125.9 368.553 125.5C369.807 125.1 370 122.1 370 106.9C370 89.1 370 88.8 367.878 87.9C366.624 87.3 364.792 86.3 363.731 85.7C361.03 83.9 354.953 80.1 351.385 78C346.948 75.4 337.978 70 336.241 68.9C335.47 68.3 326.596 63 316.469 57.1C306.438 51.1 296.31 45 294.092 43.6C291.777 42.1 289.751 40.9 289.462 40.9C289.172 40.9 286.472 39.3 283.578 37.4C280.685 35.5 278.177 33.9 277.984 33.9C277.791 33.9 272.679 30.9 266.699 27.3C260.622 23.6 249.916 17.2 242.875 13C235.834 8.80001 228.021 4.20001 225.513 2.70001C223.006 1.20001 220.594 9.20892e-06 220.016 9.20892e-06C219.533 9.20892e-06 216.929 1.30001 214.228 2.90001Z" fill="black"/>
<path d="M184.328 78.8C183.749 79.3 176.612 83.6 168.413 88.5C160.215 93.3 150.762 98.9 147.483 101.1C144.204 103.2 141.214 104.9 140.924 104.9C140.635 104.9 137.645 106.6 134.365 108.7C131.086 110.9 122.695 116 115.846 120.1C104.369 127 100.703 129.2 90.2865 135.2C88.4539 136.2 86.5248 137.5 85.9461 137.9C85.4638 138.3 82.3773 140.1 79.1944 141.9C68.9704 147.7 70.0313 140 70.0313 209V269.7L75.1433 272.4C81.4128 275.8 90.4794 281.3 95.8807 285.1C98.1956 286.6 100.414 287.7 100.993 287.4C101.475 287 101.861 274.3 101.861 256.3C101.861 236.1 102.15 225.9 102.825 225.9C103.404 225.9 106.876 227.7 110.638 229.9C114.4 232.1 117.583 233.9 117.776 233.9C117.968 233.9 121.634 236.1 125.878 238.9C130.122 241.6 133.883 243.9 134.173 243.9C134.365 243.9 136.97 245.5 139.863 247.4C142.757 249.3 145.361 250.9 145.65 250.9C145.94 250.9 148.351 252.3 151.052 254L155.874 257.1V288.9V320.7L160.022 323.2C162.24 324.6 165.809 326.7 167.931 327.9C170.053 329.2 173.14 331 174.683 332C176.322 333.1 178.252 334.2 179.023 334.6C179.795 334.9 181.627 336 182.978 337C184.328 338 185.775 338.6 186.161 338.2C187.029 337.3 186.836 77.9 185.968 77.9C185.582 77.9 184.81 78.3 184.328 78.8ZM155.874 176.4C155.874 204.6 155.585 217 154.813 217.5C154.235 217.8 152.499 217.2 150.955 216C149.509 214.9 148.062 213.9 147.772 213.9C147.29 213.9 119.415 197.3 106.973 189.6L101.861 186.5V176.4V166.4L105.526 164.2C107.455 163.1 119.222 156 131.665 148.5C144.107 141.1 154.621 135.2 155.006 135.5C155.489 135.8 155.874 154.2 155.874 176.4Z" fill="black"/>
<path d="M253.292 207.7C253.292 279.1 253.581 337.8 253.871 338.1C254.353 338.6 271.232 328.9 281.07 322.5C283.289 321.1 285.314 319.9 285.507 319.9C285.893 319.9 304.605 308.8 307.306 306.9C308.077 306.3 309.428 305.6 310.199 305.2C310.971 304.8 313.864 303 316.662 301.2C319.459 299.4 321.87 297.9 322.063 297.9C322.256 297.9 326.307 295.6 331.033 292.7C355.146 278.2 367.106 271.1 368.457 270.6C369.807 270 370 263.3 370 209.1C370 152.4 369.904 148.1 368.36 146.7C367.396 145.8 353.41 137.3 337.206 127.6C321.002 118 303.93 107.7 299.107 104.9C294.381 102 288.015 98.3 285.121 96.6C282.228 95 279.431 93.3 278.852 92.8C277.598 91.9 254.064 77.9 253.581 77.9C253.485 77.9 253.292 136.3 253.292 207.7ZM290.909 137.9C292.259 139 293.609 139.9 294.092 139.9C294.477 139.9 296.599 141.1 298.914 142.6C303.062 145.4 324.185 158 333.155 163.1L338.171 166.1L337.978 208.2L337.688 250.3L333.83 253C331.708 254.4 327.754 256.9 325.053 258.5C315.986 263.8 300.168 273.1 294.96 276.3C285.411 282.1 285.7 281.9 284.928 280.6C284.543 279.9 284.157 247.1 284.157 207.6V135.9H286.375C287.533 135.9 289.558 136.8 290.909 137.9Z" fill="black"/>
<path d="M31.3867 451V399.883H41.793V442.316H67.668V451H31.3867ZM73.0117 425.547C73.0117 420.297 73.7969 415.891 75.3672 412.328C76.5391 409.703 78.1328 407.348 80.1484 405.262C82.1875 403.176 84.4141 401.629 86.8281 400.621C90.0391 399.262 93.7422 398.582 97.9375 398.582C105.531 398.582 111.602 400.938 116.148 405.648C120.719 410.359 123.004 416.91 123.004 425.301C123.004 433.621 120.742 440.137 116.219 444.848C111.695 449.535 105.648 451.879 98.0781 451.879C90.4141 451.879 84.3203 449.547 79.7969 444.883C75.2734 440.195 73.0117 433.75 73.0117 425.547ZM83.7344 425.195C83.7344 431.031 85.082 435.461 87.7773 438.484C90.4727 441.484 93.8945 442.984 98.043 442.984C102.191 442.984 105.59 441.496 108.238 438.52C110.91 435.52 112.246 431.031 112.246 425.055C112.246 419.148 110.945 414.742 108.344 411.836C105.766 408.93 102.332 407.477 98.043 407.477C93.7539 407.477 90.2969 408.953 87.6719 411.906C85.0469 414.836 83.7344 419.266 83.7344 425.195ZM155.137 432.051V423.367H177.566V443.898C175.387 446.008 172.223 447.871 168.074 449.488C163.949 451.082 159.766 451.879 155.523 451.879C150.133 451.879 145.434 450.754 141.426 448.504C137.418 446.23 134.406 442.996 132.391 438.801C130.375 434.582 129.367 430 129.367 425.055C129.367 419.688 130.492 414.918 132.742 410.746C134.992 406.574 138.285 403.375 142.621 401.148C145.926 399.438 150.039 398.582 154.961 398.582C161.359 398.582 166.352 399.93 169.938 402.625C173.547 405.297 175.867 409 176.898 413.734L166.562 415.668C165.836 413.137 164.465 411.145 162.449 409.691C160.457 408.215 157.961 407.477 154.961 407.477C150.414 407.477 146.793 408.918 144.098 411.801C141.426 414.684 140.09 418.961 140.09 424.633C140.09 430.75 141.449 435.344 144.168 438.414C146.887 441.461 150.449 442.984 154.855 442.984C157.035 442.984 159.215 442.562 161.395 441.719C163.598 440.852 165.484 439.809 167.055 438.59V432.051H155.137ZM186.883 451V399.461H197.289V451H186.883ZM204.602 434.23L214.727 433.246C215.336 436.645 216.566 439.141 218.418 440.734C220.293 442.328 222.812 443.125 225.977 443.125C229.328 443.125 231.848 442.422 233.535 441.016C235.246 439.586 236.102 437.922 236.102 436.023C236.102 434.805 235.738 433.773 235.012 432.93C234.309 432.062 233.066 431.312 231.285 430.68C230.066 430.258 227.289 429.508 222.953 428.43C217.375 427.047 213.461 425.348 211.211 423.332C208.047 420.496 206.465 417.039 206.465 412.961C206.465 410.336 207.203 407.887 208.68 405.613C210.18 403.316 212.324 401.57 215.113 400.375C217.926 399.18 221.312 398.582 225.273 398.582C231.742 398.582 236.605 400 239.863 402.836C243.145 405.672 244.867 409.457 245.031 414.191L234.625 414.648C234.18 412 233.219 410.102 231.742 408.953C230.289 407.781 228.098 407.195 225.168 407.195C222.145 407.195 219.777 407.816 218.066 409.059C216.965 409.855 216.414 410.922 216.414 412.258C216.414 413.477 216.93 414.52 217.961 415.387C219.273 416.488 222.461 417.637 227.523 418.832C232.586 420.027 236.324 421.27 238.738 422.559C241.176 423.824 243.074 425.57 244.434 427.797C245.816 430 246.508 432.73 246.508 435.988C246.508 438.941 245.688 441.707 244.047 444.285C242.406 446.863 240.086 448.785 237.086 450.051C234.086 451.293 230.348 451.914 225.871 451.914C219.355 451.914 214.352 450.414 210.859 447.414C207.367 444.391 205.281 439.996 204.602 434.23ZM266.863 451V408.18H251.57V399.461H292.527V408.18H277.27V451H266.863ZM298.961 451V399.461H309.367V451H298.961ZM352.293 432.051L362.383 435.25C360.836 440.875 358.258 445.059 354.648 447.801C351.062 450.52 346.504 451.879 340.973 451.879C334.129 451.879 328.504 449.547 324.098 444.883C319.691 440.195 317.488 433.797 317.488 425.688C317.488 417.109 319.703 410.453 324.133 405.719C328.562 400.961 334.387 398.582 341.605 398.582C347.91 398.582 353.031 400.445 356.969 404.172C359.312 406.375 361.07 409.539 362.242 413.664L351.941 416.125C351.332 413.453 350.055 411.344 348.109 409.797C346.188 408.25 343.844 407.477 341.078 407.477C337.258 407.477 334.152 408.848 331.762 411.59C329.395 414.332 328.211 418.773 328.211 424.914C328.211 431.43 329.383 436.07 331.727 438.836C334.07 441.602 337.117 442.984 340.867 442.984C343.633 442.984 346.012 442.105 348.004 440.348C349.996 438.59 351.426 435.824 352.293 432.051ZM368.711 434.23L378.836 433.246C379.445 436.645 380.676 439.141 382.527 440.734C384.402 442.328 386.922 443.125 390.086 443.125C393.438 443.125 395.957 442.422 397.645 441.016C399.355 439.586 400.211 437.922 400.211 436.023C400.211 434.805 399.848 433.773 399.121 432.93C398.418 432.062 397.176 431.312 395.395 430.68C394.176 430.258 391.398 429.508 387.062 428.43C381.484 427.047 377.57 425.348 375.32 423.332C372.156 420.496 370.574 417.039 370.574 412.961C370.574 410.336 371.312 407.887 372.789 405.613C374.289 403.316 376.434 401.57 379.223 400.375C382.035 399.18 385.422 398.582 389.383 398.582C395.852 398.582 400.715 400 403.973 402.836C407.254 405.672 408.977 409.457 409.141 414.191L398.734 414.648C398.289 412 397.328 410.102 395.852 408.953C394.398 407.781 392.207 407.195 389.277 407.195C386.254 407.195 383.887 407.816 382.176 409.059C381.074 409.855 380.523 410.922 380.523 412.258C380.523 413.477 381.039 414.52 382.07 415.387C383.383 416.488 386.57 417.637 391.633 418.832C396.695 420.027 400.434 421.27 402.848 422.559C405.285 423.824 407.184 425.57 408.543 427.797C409.926 430 410.617 432.73 410.617 435.988C410.617 438.941 409.797 441.707 408.156 444.285C406.516 446.863 404.195 448.785 401.195 450.051C398.195 451.293 394.457 451.914 389.98 451.914C383.465 451.914 378.461 450.414 374.969 447.414C371.477 444.391 369.391 439.996 368.711 434.23Z" fill="black"/>
</svg>
