<svg width="440" height="454" viewBox="0 0 440 454" fill="none" xmlns="http://www.w3.org/2000/svg">
<path d="M214.228 2.90001C211.624 4.50001 208.731 6.20001 207.959 6.50001C207.187 6.90001 205.451 8.00001 204.101 8.90001C202.751 9.90001 199.761 11.7 197.349 13.1C194.938 14.5 188.668 18.2 183.364 21.4C178.059 24.6 168.51 30.3 162.144 34.1C155.778 37.8 149.894 41.4 149.123 41.9C148.351 42.5 147.001 43.2 146.229 43.6C145.458 44 142.564 45.8 139.767 47.6C136.97 49.4 134.462 50.9 134.173 50.9C133.883 50.9 131.183 52.5 128.289 54.4C125.395 56.3 122.888 57.9 122.695 57.9C122.502 57.9 114.882 62.4 105.815 67.9C96.6524 73.4 88.9361 77.9 88.5503 77.9C88.068 77.9 87.2964 78.4 86.6212 79.1C86.0425 79.7 82.088 82.2 78.0369 84.5L70.5136 88.7L70.2242 106.8C70.0313 121.4 70.2242 125 71.2852 125.5C72.5391 126 80.5447 121.4 95.7843 111.7C99.0637 109.6 102.054 107.9 102.247 107.9C102.44 107.9 107.166 105.2 112.664 101.8C118.161 98.4 129.157 91.8 137.066 87.2C145.072 82.5 154.235 76.9 157.514 74.8C160.794 72.6 163.687 70.9 163.977 70.9C164.169 70.9 172.85 65.7 183.267 59.4C193.78 53 202.654 48.1 203.233 48.4C203.715 48.8 204.101 106.2 204.101 198.9V348.8L207.284 351.2C208.924 352.5 212.589 354.9 215.289 356.4L220.305 359.3L227.346 354.9C231.301 352.5 234.773 350.1 235.159 349.5C235.545 348.9 235.93 281 235.93 198.7C235.93 101.1 236.22 48.8 236.895 48.4C237.377 48.1 243.743 51.4 250.977 55.8C258.211 60.3 264.288 63.9 264.48 63.9C264.673 63.9 267.181 65.5 270.075 67.4C272.968 69.3 275.669 70.9 275.958 70.9C276.248 70.9 278.756 72.4 281.553 74.2C284.35 76 289.655 79.2 293.32 81.3C300.554 85.5 319.844 97 328.525 102.4C331.419 104.2 335.373 106.6 337.206 107.7C356.786 119.3 364.888 124.2 365.853 125.1C366.528 125.7 367.782 125.9 368.553 125.5C369.807 125.1 370 122.1 370 106.9C370 89.1 370 88.8 367.878 87.9C366.624 87.3 364.792 86.3 363.731 85.7C361.03 83.9 354.953 80.1 351.385 78C346.948 75.4 337.978 70 336.241 68.9C335.47 68.3 326.596 63 316.469 57.1C306.438 51.1 296.31 45 294.092 43.6C291.777 42.1 289.751 40.9 289.462 40.9C289.172 40.9 286.472 39.3 283.578 37.4C280.685 35.5 278.177 33.9 277.984 33.9C277.791 33.9 272.679 30.9 266.699 27.3C260.622 23.6 249.916 17.2 242.875 13C235.834 8.80001 228.021 4.20001 225.513 2.70001C223.006 1.20001 220.594 9.20892e-06 220.016 9.20892e-06C219.533 9.20892e-06 216.929 1.30001 214.228 2.90001Z" fill="white"/>
<path d="M184.328 78.8C183.749 79.3 176.612 83.6 168.413 88.5C160.215 93.3 150.762 98.9 147.483 101.1C144.204 103.2 141.214 104.9 140.924 104.9C140.635 104.9 137.645 106.6 134.365 108.7C131.086 110.9 122.695 116 115.846 120.1C104.369 127 100.703 129.2 90.2865 135.2C88.4539 136.2 86.5248 137.5 85.9461 137.9C85.4638 138.3 82.3773 140.1 79.1944 141.9C68.9704 147.7 70.0313 140 70.0313 209V269.7L75.1433 272.4C81.4128 275.8 90.4794 281.3 95.8807 285.1C98.1956 286.6 100.414 287.7 100.993 287.4C101.475 287 101.861 274.3 101.861 256.3C101.861 236.1 102.15 225.9 102.825 225.9C103.404 225.9 106.876 227.7 110.638 229.9C114.4 232.1 117.583 233.9 117.776 233.9C117.968 233.9 121.634 236.1 125.878 238.9C130.122 241.6 133.883 243.9 134.173 243.9C134.365 243.9 136.97 245.5 139.863 247.4C142.757 249.3 145.361 250.9 145.65 250.9C145.94 250.9 148.351 252.3 151.052 254L155.874 257.1V288.9V320.7L160.022 323.2C162.24 324.6 165.809 326.7 167.931 327.9C170.053 329.2 173.14 331 174.683 332C176.322 333.1 178.252 334.2 179.023 334.6C179.795 334.9 181.627 336 182.978 337C184.328 338 185.775 338.6 186.161 338.2C187.029 337.3 186.836 77.9 185.968 77.9C185.582 77.9 184.81 78.3 184.328 78.8ZM155.874 176.4C155.874 204.6 155.585 217 154.813 217.5C154.235 217.8 152.499 217.2 150.955 216C149.509 214.9 148.062 213.9 147.772 213.9C147.29 213.9 119.415 197.3 106.973 189.6L101.861 186.5V176.4V166.4L105.526 164.2C107.455 163.1 119.222 156 131.665 148.5C144.107 141.1 154.621 135.2 155.006 135.5C155.489 135.8 155.874 154.2 155.874 176.4Z" fill="white"/>
<path d="M253.292 207.7C253.292 279.1 253.581 337.8 253.871 338.1C254.353 338.6 271.232 328.9 281.07 322.5C283.289 321.1 285.314 319.9 285.507 319.9C285.893 319.9 304.605 308.8 307.306 306.9C308.077 306.3 309.428 305.6 310.199 305.2C310.971 304.8 313.864 303 316.662 301.2C319.459 299.4 321.87 297.9 322.063 297.9C322.256 297.9 326.307 295.6 331.033 292.7C355.146 278.2 367.106 271.1 368.457 270.6C369.807 270 370 263.3 370 209.1C370 152.4 369.904 148.1 368.36 146.7C367.396 145.8 353.41 137.3 337.206 127.6C321.002 118 303.93 107.7 299.107 104.9C294.381 102 288.015 98.3 285.121 96.6C282.228 95 279.431 93.3 278.852 92.8C277.598 91.9 254.064 77.9 253.581 77.9C253.485 77.9 253.292 136.3 253.292 207.7ZM290.909 137.9C292.259 139 293.609 139.9 294.092 139.9C294.477 139.9 296.599 141.1 298.914 142.6C303.062 145.4 324.185 158 333.155 163.1L338.171 166.1L337.978 208.2L337.688 250.3L333.83 253C331.708 254.4 327.754 256.9 325.053 258.5C315.986 263.8 300.168 273.1 294.96 276.3C285.411 282.1 285.7 281.9 284.928 280.6C284.543 279.9 284.157 247.1 284.157 207.6V135.9H286.375C287.533 135.9 289.558 136.8 290.909 137.9Z" fill="white"/>
<path d="M31.3867 451.3V400.183H41.793V442.616H67.668V451.3H31.3867ZM73.0117 425.847C73.0117 420.597 73.7969 416.191 75.3672 412.628C76.5391 410.003 78.1328 407.648 80.1484 405.562C82.1875 403.476 84.4141 401.929 86.8281 400.921C90.0391 399.562 93.7422 398.882 97.9375 398.882C105.531 398.882 111.602 401.237 116.148 405.948C120.719 410.659 123.004 417.21 123.004 425.601C123.004 433.921 120.742 440.437 116.219 445.148C111.695 449.835 105.648 452.179 98.0781 452.179C90.4141 452.179 84.3203 449.847 79.7969 445.183C75.2734 440.495 73.0117 434.05 73.0117 425.847ZM83.7344 425.495C83.7344 431.331 85.082 435.761 87.7773 438.784C90.4727 441.784 93.8945 443.284 98.043 443.284C102.191 443.284 105.59 441.796 108.238 438.82C110.91 435.82 112.246 431.331 112.246 425.355C112.246 419.448 110.945 415.042 108.344 412.136C105.766 409.23 102.332 407.777 98.043 407.777C93.7539 407.777 90.2969 409.253 87.6719 412.206C85.0469 415.136 83.7344 419.566 83.7344 425.495ZM155.137 432.351V423.667H177.566V444.198C175.387 446.308 172.223 448.171 168.074 449.788C163.949 451.382 159.766 452.179 155.523 452.179C150.133 452.179 145.434 451.054 141.426 448.804C137.418 446.53 134.406 443.296 132.391 439.101C130.375 434.882 129.367 430.3 129.367 425.355C129.367 419.987 130.492 415.218 132.742 411.046C134.992 406.874 138.285 403.675 142.621 401.448C145.926 399.737 150.039 398.882 154.961 398.882C161.359 398.882 166.352 400.23 169.938 402.925C173.547 405.597 175.867 409.3 176.898 414.034L166.562 415.968C165.836 413.437 164.465 411.445 162.449 409.991C160.457 408.515 157.961 407.777 154.961 407.777C150.414 407.777 146.793 409.218 144.098 412.101C141.426 414.984 140.09 419.261 140.09 424.933C140.09 431.05 141.449 435.644 144.168 438.714C146.887 441.761 150.449 443.284 154.855 443.284C157.035 443.284 159.215 442.862 161.395 442.019C163.598 441.152 165.484 440.109 167.055 438.89V432.351H155.137ZM186.883 451.3V399.761H197.289V451.3H186.883ZM204.602 434.53L214.727 433.546C215.336 436.945 216.566 439.441 218.418 441.034C220.293 442.628 222.812 443.425 225.977 443.425C229.328 443.425 231.848 442.722 233.535 441.316C235.246 439.886 236.102 438.222 236.102 436.323C236.102 435.105 235.738 434.073 235.012 433.23C234.309 432.362 233.066 431.612 231.285 430.98C230.066 430.558 227.289 429.808 222.953 428.73C217.375 427.347 213.461 425.648 211.211 423.632C208.047 420.796 206.465 417.339 206.465 413.261C206.465 410.636 207.203 408.187 208.68 405.913C210.18 403.616 212.324 401.87 215.113 400.675C217.926 399.48 221.312 398.882 225.273 398.882C231.742 398.882 236.605 400.3 239.863 403.136C243.145 405.972 244.867 409.757 245.031 414.491L234.625 414.948C234.18 412.3 233.219 410.402 231.742 409.253C230.289 408.081 228.098 407.495 225.168 407.495C222.145 407.495 219.777 408.116 218.066 409.359C216.965 410.155 216.414 411.222 216.414 412.558C216.414 413.777 216.93 414.82 217.961 415.687C219.273 416.788 222.461 417.937 227.523 419.132C232.586 420.327 236.324 421.57 238.738 422.859C241.176 424.124 243.074 425.87 244.434 428.097C245.816 430.3 246.508 433.03 246.508 436.288C246.508 439.241 245.688 442.007 244.047 444.585C242.406 447.163 240.086 449.085 237.086 450.351C234.086 451.593 230.348 452.214 225.871 452.214C219.355 452.214 214.352 450.714 210.859 447.714C207.367 444.691 205.281 440.296 204.602 434.53ZM266.863 451.3V408.48H251.57V399.761H292.527V408.48H277.27V451.3H266.863ZM298.961 451.3V399.761H309.367V451.3H298.961ZM352.293 432.351L362.383 435.55C360.836 441.175 358.258 445.359 354.648 448.101C351.062 450.82 346.504 452.179 340.973 452.179C334.129 452.179 328.504 449.847 324.098 445.183C319.691 440.495 317.488 434.097 317.488 425.987C317.488 417.409 319.703 410.753 324.133 406.019C328.562 401.261 334.387 398.882 341.605 398.882C347.91 398.882 353.031 400.745 356.969 404.472C359.312 406.675 361.07 409.839 362.242 413.964L351.941 416.425C351.332 413.753 350.055 411.644 348.109 410.097C346.188 408.55 343.844 407.777 341.078 407.777C337.258 407.777 334.152 409.148 331.762 411.89C329.395 414.632 328.211 419.073 328.211 425.214C328.211 431.73 329.383 436.37 331.727 439.136C334.07 441.902 337.117 443.284 340.867 443.284C343.633 443.284 346.012 442.405 348.004 440.648C349.996 438.89 351.426 436.124 352.293 432.351ZM368.711 434.53L378.836 433.546C379.445 436.945 380.676 439.441 382.527 441.034C384.402 442.628 386.922 443.425 390.086 443.425C393.438 443.425 395.957 442.722 397.645 441.316C399.355 439.886 400.211 438.222 400.211 436.323C400.211 435.105 399.848 434.073 399.121 433.23C398.418 432.362 397.176 431.612 395.395 430.98C394.176 430.558 391.398 429.808 387.062 428.73C381.484 427.347 377.57 425.648 375.32 423.632C372.156 420.796 370.574 417.339 370.574 413.261C370.574 410.636 371.312 408.187 372.789 405.913C374.289 403.616 376.434 401.87 379.223 400.675C382.035 399.48 385.422 398.882 389.383 398.882C395.852 398.882 400.715 400.3 403.973 403.136C407.254 405.972 408.977 409.757 409.141 414.491L398.734 414.948C398.289 412.3 397.328 410.402 395.852 409.253C394.398 408.081 392.207 407.495 389.277 407.495C386.254 407.495 383.887 408.116 382.176 409.359C381.074 410.155 380.523 411.222 380.523 412.558C380.523 413.777 381.039 414.82 382.07 415.687C383.383 416.788 386.57 417.937 391.633 419.132C396.695 420.327 400.434 421.57 402.848 422.859C405.285 424.124 407.184 425.87 408.543 428.097C409.926 430.3 410.617 433.03 410.617 436.288C410.617 439.241 409.797 442.007 408.156 444.585C406.516 447.163 404.195 449.085 401.195 450.351C398.195 451.593 394.457 452.214 389.98 452.214C383.465 452.214 378.461 450.714 374.969 447.714C371.477 444.691 369.391 440.296 368.711 434.53Z" fill="white"/>
</svg>
